<?xml version="1.0" encoding="UTF-8" standalone="no"?>
<!DOCTYPE svg PUBLIC "-//W3C//DTD SVG 1.1//EN"
 "http://www.w3.org/Graphics/SVG/1.1/DTD/svg11.dtd">
<!-- Generated by graphviz version 13.1.2 (0)
 -->
<!-- Title: snakemake_dag Pages: 1 -->
<svg width="1095pt" height="1124pt"
 viewBox="0.00 0.00 1095.00 1124.00" xmlns="http://www.w3.org/2000/svg" xmlns:xlink="http://www.w3.org/1999/xlink">
<g id="graph0" class="graph" transform="scale(1 1) rotate(0) translate(4 1120)">
<title>snakemake_dag</title>
<polygon fill="white" stroke="none" points="-4,4 -4,-1120 1090.66,-1120 1090.66,4 -4,4"/>
<!-- 0 -->
<g id="node1" class="node">
<title>0</title>
<path fill="none" stroke="#d87d56" stroke-width="2" d="M627.29,-36C627.29,-36 588.04,-36 588.04,-36 582.04,-36 576.04,-30 576.04,-24 576.04,-24 576.04,-12 576.04,-12 576.04,-6 582.04,0 588.04,0 588.04,0 627.29,0 627.29,0 633.29,0 639.29,-6 639.29,-12 639.29,-12 639.29,-24 639.29,-24 639.29,-30 633.29,-36 627.29,-36"/>
<text xml:space="preserve" text-anchor="middle" x="607.66" y="-14.12" font-family="sans" font-size="10.00">metrics_all</text>
</g>
<!-- 1 -->
<g id="node2" class="node">
<title>1</title>
<path fill="none" stroke="#a7d856" stroke-width="2" d="M748.54,-468C748.54,-468 686.79,-468 686.79,-468 680.79,-468 674.79,-462 674.79,-456 674.79,-456 674.79,-444 674.79,-444 674.79,-438 680.79,-432 686.79,-432 686.79,-432 748.54,-432 748.54,-432 754.54,-432 760.54,-438 760.54,-444 760.54,-444 760.54,-456 760.54,-456 760.54,-462 754.54,-468 748.54,-468"/>
<text xml:space="preserve" text-anchor="middle" x="717.66" y="-446.12" font-family="sans" font-size="10.00">metrics_prepare</text>
</g>
<!-- 1&#45;&gt;0 -->
<g id="edge3" class="edge">
<title>1&#45;&gt;0</title>
<path fill="none" stroke="grey" stroke-width="2" d="M761.28,-449.5C851.16,-448 1048.66,-430.65 1048.66,-307 1048.66,-307 1048.66,-307 1048.66,-161 1048.66,-116.06 1037.62,-97.57 1000.66,-72 945.13,-33.59 743.99,-22.93 652.96,-20.04"/>
<polygon fill="grey" stroke="grey" stroke-width="2" points="653.23,-16.54 643.13,-19.75 653.03,-23.54 653.23,-16.54"/>
</g>
<!-- 12 -->
<g id="node13" class="node">
<title>12</title>
<path fill="none" stroke="#d8c356" stroke-width="2" d="M877.16,-324C877.16,-324 792.16,-324 792.16,-324 786.16,-324 780.16,-318 780.16,-312 780.16,-312 780.16,-300 780.16,-300 780.16,-294 786.16,-288 792.16,-288 792.16,-288 877.16,-288 877.16,-288 883.16,-288 889.16,-294 889.16,-300 889.16,-300 889.16,-312 889.16,-312 889.16,-318 883.16,-324 877.16,-324"/>
<text xml:space="preserve" text-anchor="middle" x="834.66" y="-302.12" font-family="sans" font-size="10.00">metrics_score_genes</text>
</g>
<!-- 1&#45;&gt;12 -->
<g id="edge26" class="edge">
<title>1&#45;&gt;12</title>
<path fill="none" stroke="grey" stroke-width="2" d="M734.45,-431.15C743.83,-421.01 755.61,-407.99 765.66,-396 782.41,-376.02 800.43,-352.71 813.85,-334.96"/>
<polygon fill="grey" stroke="grey" stroke-width="2" points="816.53,-337.22 819.74,-327.13 810.94,-333.02 816.53,-337.22"/>
</g>
<!-- 13 -->
<g id="node14" class="node">
<title>13</title>
<path fill="none" stroke="#70d856" stroke-width="2" d="M685.91,-324C685.91,-324 593.41,-324 593.41,-324 587.41,-324 581.41,-318 581.41,-312 581.41,-312 581.41,-300 581.41,-300 581.41,-294 587.41,-288 593.41,-288 593.41,-288 685.91,-288 685.91,-288 691.91,-288 697.91,-294 697.91,-300 697.91,-300 697.91,-312 697.91,-312 697.91,-318 691.91,-324 685.91,-324"/>
<text xml:space="preserve" text-anchor="middle" x="639.66" y="-302.12" font-family="sans" font-size="10.00">metrics_cluster_collect</text>
</g>
<!-- 1&#45;&gt;13 -->
<g id="edge27" class="edge">
<title>1&#45;&gt;13</title>
<path fill="none" stroke="grey" stroke-width="2" d="M673.97,-432.57C658.02,-424.2 641.69,-412.27 632.66,-396 622.85,-378.31 624.86,-355.52 629.19,-337.43"/>
<polygon fill="grey" stroke="grey" stroke-width="2" points="632.54,-338.45 631.89,-327.87 625.81,-336.55 632.54,-338.45"/>
</g>
<!-- 14 -->
<g id="node15" class="node">
<title>14</title>
<path fill="none" stroke="#56d8a2" stroke-width="2" d="M712.04,-396C712.04,-396 653.29,-396 653.29,-396 647.29,-396 641.29,-390 641.29,-384 641.29,-384 641.29,-372 641.29,-372 641.29,-366 647.29,-360 653.29,-360 653.29,-360 712.04,-360 712.04,-360 718.04,-360 724.04,-366 724.04,-372 724.04,-372 724.04,-384 724.04,-384 724.04,-390 718.04,-396 712.04,-396"/>
<text xml:space="preserve" text-anchor="middle" x="682.66" y="-374.12" font-family="sans" font-size="10.00">metrics_cluster</text>
</g>
<!-- 1&#45;&gt;14 -->
<g id="edge29" class="edge">
<title>1&#45;&gt;14</title>
<path fill="none" stroke="grey" stroke-width="2" d="M708.83,-431.34C705.33,-424.34 701.22,-416.12 697.3,-408.28"/>
<polygon fill="grey" stroke="grey" stroke-width="2" points="700.57,-406.99 692.97,-399.61 694.31,-410.12 700.57,-406.99"/>
</g>
<!-- 15 -->
<g id="node16" class="node">
<title>15</title>
<path fill="none" stroke="#56c9d8" stroke-width="2" d="M661.16,-252C661.16,-252 618.16,-252 618.16,-252 612.16,-252 606.16,-246 606.16,-240 606.16,-240 606.16,-228 606.16,-228 606.16,-222 612.16,-216 618.16,-216 618.16,-216 661.16,-216 661.16,-216 667.16,-216 673.16,-222 673.16,-228 673.16,-228 673.16,-240 673.16,-240 673.16,-246 667.16,-252 661.16,-252"/>
<text xml:space="preserve" text-anchor="middle" x="639.66" y="-230.12" font-family="sans" font-size="10.00">metrics_run</text>
</g>
<!-- 1&#45;&gt;15 -->
<g id="edge30" class="edge">
<title>1&#45;&gt;15</title>
<path fill="none" stroke="grey" stroke-width="2" d="M724.06,-431.11C727.35,-420.96 731.01,-407.93 732.66,-396 739.45,-347.1 735.51,-328.07 706.66,-288 699.27,-277.73 689.35,-268.41 679.43,-260.56"/>
<polygon fill="grey" stroke="grey" stroke-width="2" points="681.72,-257.9 671.61,-254.73 677.54,-263.52 681.72,-257.9"/>
</g>
<!-- 2 -->
<g id="node3" class="node">
<title>2</title>
<path fill="none" stroke="#b6d856" stroke-width="2" d="M630.16,-540C630.16,-540 521.16,-540 521.16,-540 515.16,-540 509.16,-534 509.16,-528 509.16,-528 509.16,-516 509.16,-516 509.16,-510 515.16,-504 521.16,-504 521.16,-504 630.16,-504 630.16,-504 636.16,-504 642.16,-510 642.16,-516 642.16,-516 642.16,-528 642.16,-528 642.16,-534 636.16,-540 630.16,-540"/>
<text xml:space="preserve" text-anchor="middle" x="575.66" y="-518.12" font-family="sans" font-size="10.00">integration_compute_umap</text>
</g>
<!-- 2&#45;&gt;1 -->
<g id="edge14" class="edge">
<title>2&#45;&gt;1</title>
<path fill="none" stroke="grey" stroke-width="2" d="M611.86,-503.15C629.56,-494.43 651.08,-483.82 670.08,-474.46"/>
<polygon fill="grey" stroke="grey" stroke-width="2" points="671.39,-477.71 678.81,-470.15 668.3,-471.43 671.39,-477.71"/>
</g>
<!-- 11 -->
<g id="node12" class="node">
<title>11</title>
<path fill="none" stroke="#5673d8" stroke-width="2" d="M551.29,-324C551.29,-324 506.04,-324 506.04,-324 500.04,-324 494.04,-318 494.04,-312 494.04,-312 494.04,-300 494.04,-300 494.04,-294 500.04,-288 506.04,-288 506.04,-288 551.29,-288 551.29,-288 557.29,-288 563.29,-294 563.29,-300 563.29,-300 563.29,-312 563.29,-312 563.29,-318 557.29,-324 551.29,-324"/>
<text xml:space="preserve" text-anchor="middle" x="528.66" y="-302.12" font-family="sans" font-size="10.00">metrics_pca</text>
</g>
<!-- 2&#45;&gt;11 -->
<g id="edge25" class="edge">
<title>2&#45;&gt;11</title>
<path fill="none" stroke="grey" stroke-width="2" d="M571.93,-503.26C568.14,-485.29 562.06,-456.7 556.66,-432 549.57,-399.59 541.24,-362.5 535.52,-337.2"/>
<polygon fill="grey" stroke="grey" stroke-width="2" points="539,-336.72 533.38,-327.74 532.17,-338.27 539,-336.72"/>
</g>
<!-- 16 -->
<g id="node17" class="node">
<title>16</title>
<path fill="none" stroke="#567bd8" stroke-width="2" d="M952.66,-108C952.66,-108 894.66,-108 894.66,-108 888.66,-108 882.66,-102 882.66,-96 882.66,-96 882.66,-84 882.66,-84 882.66,-78 888.66,-72 894.66,-72 894.66,-72 952.66,-72 952.66,-72 958.66,-72 964.66,-78 964.66,-84 964.66,-84 964.66,-96 964.66,-96 964.66,-102 958.66,-108 952.66,-108"/>
<text xml:space="preserve" text-anchor="middle" x="923.66" y="-86.12" font-family="sans" font-size="10.00">metrics_collect</text>
</g>
<!-- 2&#45;&gt;16 -->
<g id="edge35" class="edge">
<title>2&#45;&gt;16</title>
<path fill="none" stroke="grey" stroke-width="2" d="M642.99,-516.43C781.75,-505.16 1086.66,-470.04 1086.66,-379 1086.66,-379 1086.66,-379 1086.66,-233 1086.66,-173.84 1024.86,-133.69 977.36,-111.58"/>
<polygon fill="grey" stroke="grey" stroke-width="2" points="978.96,-108.46 968.4,-107.58 976.11,-114.85 978.96,-108.46"/>
</g>
<!-- 29 -->
<g id="node30" class="node">
<title>29</title>
<path fill="none" stroke="#d88d56" stroke-width="2" d="M535.29,-468C535.29,-468 448.04,-468 448.04,-468 442.04,-468 436.04,-462 436.04,-456 436.04,-456 436.04,-444 436.04,-444 436.04,-438 442.04,-432 448.04,-432 448.04,-432 535.29,-432 535.29,-432 541.29,-432 547.29,-438 547.29,-444 547.29,-444 547.29,-456 547.29,-456 547.29,-462 541.29,-468 535.29,-468"/>
<text xml:space="preserve" text-anchor="middle" x="491.66" y="-446.12" font-family="sans" font-size="10.00">integration_plot_umap</text>
</g>
<!-- 2&#45;&gt;29 -->
<g id="edge51" class="edge">
<title>2&#45;&gt;29</title>
<path fill="none" stroke="grey" stroke-width="2" d="M554.47,-503.34C544.89,-495.36 533.38,-485.77 522.85,-476.99"/>
<polygon fill="grey" stroke="grey" stroke-width="2" points="525.39,-474.55 515.47,-470.84 520.91,-479.93 525.39,-474.55"/>
</g>
<!-- 3 -->
<g id="node4" class="node">
<title>3</title>
<path fill="none" stroke="#5663d8" stroke-width="2" d="M519.41,-612C519.41,-612 423.91,-612 423.91,-612 417.91,-612 411.91,-606 411.91,-600 411.91,-600 411.91,-588 411.91,-588 411.91,-582 417.91,-576 423.91,-576 423.91,-576 519.41,-576 519.41,-576 525.41,-576 531.41,-582 531.41,-588 531.41,-588 531.41,-600 531.41,-600 531.41,-606 525.41,-612 519.41,-612"/>
<text xml:space="preserve" text-anchor="middle" x="471.66" y="-590.12" font-family="sans" font-size="10.00">integration_postprocess</text>
</g>
<!-- 3&#45;&gt;2 -->
<g id="edge15" class="edge">
<title>3&#45;&gt;2</title>
<path fill="none" stroke="grey" stroke-width="2" d="M498.18,-575.15C510.4,-566.93 525.12,-557.02 538.43,-548.06"/>
<polygon fill="grey" stroke="grey" stroke-width="2" points="540.35,-550.99 546.69,-542.5 536.44,-545.18 540.35,-550.99"/>
</g>
<!-- 26 -->
<g id="node27" class="node">
<title>26</title>
<path fill="none" stroke="#d89c56" stroke-width="2" d="M398.66,-396C398.66,-396 346.66,-396 346.66,-396 340.66,-396 334.66,-390 334.66,-384 334.66,-384 334.66,-372 334.66,-372 334.66,-366 340.66,-360 346.66,-360 346.66,-360 398.66,-360 398.66,-360 404.66,-360 410.66,-366 410.66,-372 410.66,-372 410.66,-384 410.66,-384 410.66,-390 404.66,-396 398.66,-396"/>
<text xml:space="preserve" text-anchor="middle" x="372.66" y="-374.12" font-family="sans" font-size="10.00">integration_all</text>
</g>
<!-- 3&#45;&gt;26 -->
<g id="edge46" class="edge">
<title>3&#45;&gt;26</title>
<path fill="none" stroke="grey" stroke-width="2" d="M463.39,-575.12C446.36,-538.3 407.21,-453.69 386.35,-408.58"/>
<polygon fill="grey" stroke="grey" stroke-width="2" points="389.63,-407.33 382.25,-399.72 383.27,-410.27 389.63,-407.33"/>
</g>
<!-- 4 -->
<g id="node5" class="node">
<title>4</title>
<path fill="none" stroke="#d86e56" stroke-width="2" d="M365.29,-684C365.29,-684 272.04,-684 272.04,-684 266.04,-684 260.04,-678 260.04,-672 260.04,-672 260.04,-660 260.04,-660 260.04,-654 266.04,-648 272.04,-648 272.04,-648 365.29,-648 365.29,-648 371.29,-648 377.29,-654 377.29,-660 377.29,-660 377.29,-672 377.29,-672 377.29,-678 371.29,-684 365.29,-684"/>
<text xml:space="preserve" text-anchor="middle" x="318.66" y="-662.12" font-family="sans" font-size="10.00">integration_run_method</text>
</g>
<!-- 4&#45;&gt;3 -->
<g id="edge16" class="edge">
<title>4&#45;&gt;3</title>
<path fill="none" stroke="grey" stroke-width="2" d="M357.67,-647.15C376.84,-638.38 400.18,-627.71 420.73,-618.3"/>
<polygon fill="grey" stroke="grey" stroke-width="2" points="422.07,-621.54 429.71,-614.19 419.16,-615.17 422.07,-621.54"/>
</g>
<!-- 4&#45;&gt;26 -->
<g id="edge48" class="edge">
<title>4&#45;&gt;26</title>
<path fill="none" stroke="grey" stroke-width="2" d="M259.21,-648.08C241.81,-640.07 224.77,-628.5 214.66,-612 206.24,-598.26 208.02,-524.84 218.66,-504 241.63,-459.03 288.81,-424.57 324.93,-403.33"/>
<polygon fill="grey" stroke="grey" stroke-width="2" points="326.64,-406.39 333.6,-398.4 323.17,-400.3 326.64,-406.39"/>
</g>
<!-- 28 -->
<g id="node29" class="node">
<title>28</title>
<path fill="none" stroke="#56d882" stroke-width="2" d="M381.91,-612C381.91,-612 235.41,-612 235.41,-612 229.41,-612 223.41,-606 223.41,-600 223.41,-600 223.41,-588 223.41,-588 223.41,-582 229.41,-576 235.41,-576 235.41,-576 381.91,-576 381.91,-576 387.91,-576 393.91,-582 393.91,-588 393.91,-588 393.91,-600 393.91,-600 393.91,-606 387.91,-612 381.91,-612"/>
<text xml:space="preserve" text-anchor="middle" x="308.66" y="-590.12" font-family="sans" font-size="10.00">integration_benchmark_per_dataset</text>
</g>
<!-- 4&#45;&gt;28 -->
<g id="edge50" class="edge">
<title>4&#45;&gt;28</title>
<path fill="none" stroke="grey" stroke-width="2" d="M316.14,-647.34C315.2,-640.75 314.1,-633.08 313.04,-625.67"/>
<polygon fill="grey" stroke="grey" stroke-width="2" points="316.53,-625.3 311.65,-615.9 309.6,-626.29 316.53,-625.3"/>
</g>
<!-- 5 -->
<g id="node6" class="node">
<title>5</title>
<path fill="none" stroke="#80d856" stroke-width="2" d="M363.91,-756C363.91,-756 289.41,-756 289.41,-756 283.41,-756 277.41,-750 277.41,-744 277.41,-744 277.41,-732 277.41,-732 277.41,-726 283.41,-720 289.41,-720 289.41,-720 363.91,-720 363.91,-720 369.91,-720 375.91,-726 375.91,-732 375.91,-732 375.91,-744 375.91,-744 375.91,-750 369.91,-756 363.91,-756"/>
<text xml:space="preserve" text-anchor="middle" x="326.66" y="-734.12" font-family="sans" font-size="10.00">integration_prepare</text>
</g>
<!-- 5&#45;&gt;4 -->
<g id="edge17" class="edge">
<title>5&#45;&gt;4</title>
<path fill="none" stroke="grey" stroke-width="2" d="M324.64,-719.34C323.89,-712.75 323.01,-705.08 322.17,-697.67"/>
<polygon fill="grey" stroke="grey" stroke-width="2" points="325.67,-697.45 321.05,-687.91 318.71,-698.24 325.67,-697.45"/>
</g>
<!-- 6 -->
<g id="node7" class="node">
<title>6</title>
<path fill="none" stroke="#5682d8" stroke-width="2" d="M459.66,-828C459.66,-828 359.66,-828 359.66,-828 353.66,-828 347.66,-822 347.66,-816 347.66,-816 347.66,-804 347.66,-804 347.66,-798 353.66,-792 359.66,-792 359.66,-792 459.66,-792 459.66,-792 465.66,-792 471.66,-798 471.66,-804 471.66,-804 471.66,-816 471.66,-816 471.66,-822 465.66,-828 459.66,-828"/>
<text xml:space="preserve" text-anchor="middle" x="409.66" y="-806.12" font-family="sans" font-size="10.00">preprocessing_assemble</text>
</g>
<!-- 6&#45;&gt;5 -->
<g id="edge18" class="edge">
<title>6&#45;&gt;5</title>
<path fill="none" stroke="grey" stroke-width="2" d="M388.72,-791.34C379.35,-783.44 368.12,-773.96 357.8,-765.26"/>
<polygon fill="grey" stroke="grey" stroke-width="2" points="360.1,-762.62 350.2,-758.85 355.59,-767.98 360.1,-762.62"/>
</g>
<!-- 30 -->
<g id="node31" class="node">
<title>30</title>
<path fill="none" stroke="#a7d856" stroke-width="2" d="M629.54,-612C629.54,-612 561.79,-612 561.79,-612 555.79,-612 549.79,-606 549.79,-600 549.79,-600 549.79,-588 549.79,-588 549.79,-582 555.79,-576 561.79,-576 561.79,-576 629.54,-576 629.54,-576 635.54,-576 641.54,-582 641.54,-588 641.54,-588 641.54,-600 641.54,-600 641.54,-606 635.54,-612 629.54,-612"/>
<text xml:space="preserve" text-anchor="middle" x="595.66" y="-590.12" font-family="sans" font-size="10.00">preprocessing_all</text>
</g>
<!-- 6&#45;&gt;30 -->
<g id="edge53" class="edge">
<title>6&#45;&gt;30</title>
<path fill="none" stroke="grey" stroke-width="2" d="M410.37,-791.04C411.84,-772.12 416.29,-742.08 429.66,-720 457.1,-674.7 507.66,-640.24 545.8,-619.1"/>
<polygon fill="grey" stroke="grey" stroke-width="2" points="547.39,-622.22 554.54,-614.4 544.07,-616.05 547.39,-622.22"/>
</g>
<!-- 7 -->
<g id="node8" class="node">
<title>7</title>
<path fill="none" stroke="#56d0d8" stroke-width="2" d="M493.66,-1116C493.66,-1116 393.66,-1116 393.66,-1116 387.66,-1116 381.66,-1110 381.66,-1104 381.66,-1104 381.66,-1092 381.66,-1092 381.66,-1086 387.66,-1080 393.66,-1080 393.66,-1080 493.66,-1080 493.66,-1080 499.66,-1080 505.66,-1086 505.66,-1092 505.66,-1092 505.66,-1104 505.66,-1104 505.66,-1110 499.66,-1116 493.66,-1116"/>
<text xml:space="preserve" text-anchor="middle" x="443.66" y="-1094.12" font-family="sans" font-size="10.00">preprocessing_normalize</text>
</g>
<!-- 7&#45;&gt;6 -->
<g id="edge21" class="edge">
<title>7&#45;&gt;6</title>
<path fill="none" stroke="grey" stroke-width="2" d="M437.12,-1079.05C433.61,-1068.88 429.45,-1055.85 426.66,-1044 409.95,-972.95 408.34,-886.66 408.85,-841.66"/>
<polygon fill="grey" stroke="grey" stroke-width="2" points="412.34,-841.91 409.02,-831.85 405.35,-841.79 412.34,-841.91"/>
</g>
<!-- 9 -->
<g id="node10" class="node">
<title>9</title>
<path fill="none" stroke="#d8a456" stroke-width="2" d="M555.79,-1044C555.79,-1044 447.54,-1044 447.54,-1044 441.54,-1044 435.54,-1038 435.54,-1032 435.54,-1032 435.54,-1020 435.54,-1020 435.54,-1014 441.54,-1008 447.54,-1008 447.54,-1008 555.79,-1008 555.79,-1008 561.79,-1008 567.79,-1014 567.79,-1020 567.79,-1020 567.79,-1032 567.79,-1032 567.79,-1038 561.79,-1044 555.79,-1044"/>
<text xml:space="preserve" text-anchor="middle" x="501.66" y="-1022.12" font-family="sans" font-size="10.00">preprocessing_filter_genes</text>
</g>
<!-- 7&#45;&gt;9 -->
<g id="edge23" class="edge">
<title>7&#45;&gt;9</title>
<path fill="none" stroke="grey" stroke-width="2" d="M458.3,-1079.34C464.43,-1071.93 471.72,-1063.14 478.54,-1054.9"/>
<polygon fill="grey" stroke="grey" stroke-width="2" points="481.21,-1057.17 484.9,-1047.23 475.82,-1052.7 481.21,-1057.17"/>
</g>
<!-- 8 -->
<g id="node9" class="node">
<title>8</title>
<path fill="none" stroke="#80d856" stroke-width="2" d="M590.66,-972C590.66,-972 436.66,-972 436.66,-972 430.66,-972 424.66,-966 424.66,-960 424.66,-960 424.66,-948 424.66,-948 424.66,-942 430.66,-936 436.66,-936 436.66,-936 590.66,-936 590.66,-936 596.66,-936 602.66,-942 602.66,-948 602.66,-948 602.66,-960 602.66,-960 602.66,-966 596.66,-972 590.66,-972"/>
<text xml:space="preserve" text-anchor="middle" x="513.66" y="-950.12" font-family="sans" font-size="10.00">preprocessing_highly_variable_genes</text>
</g>
<!-- 8&#45;&gt;6 -->
<g id="edge20" class="edge">
<title>8&#45;&gt;6</title>
<path fill="none" stroke="grey" stroke-width="2" d="M490.38,-935.02C478.98,-925.45 465.62,-912.99 455.66,-900 441.72,-881.8 429.94,-858.75 421.79,-840.67"/>
<polygon fill="grey" stroke="grey" stroke-width="2" points="425.04,-839.35 417.84,-831.57 418.62,-842.14 425.04,-839.35"/>
</g>
<!-- 10 -->
<g id="node11" class="node">
<title>10</title>
<path fill="none" stroke="#9fd856" stroke-width="2" d="M550.54,-900C550.54,-900 476.79,-900 476.79,-900 470.79,-900 464.79,-894 464.79,-888 464.79,-888 464.79,-876 464.79,-876 464.79,-870 470.79,-864 476.79,-864 476.79,-864 550.54,-864 550.54,-864 556.54,-864 562.54,-870 562.54,-876 562.54,-876 562.54,-888 562.54,-888 562.54,-894 556.54,-900 550.54,-900"/>
<text xml:space="preserve" text-anchor="middle" x="513.66" y="-878.12" font-family="sans" font-size="10.00">preprocessing_pca</text>
</g>
<!-- 8&#45;&gt;10 -->
<g id="edge24" class="edge">
<title>8&#45;&gt;10</title>
<path fill="none" stroke="grey" stroke-width="2" d="M513.66,-935.34C513.66,-928.75 513.66,-921.08 513.66,-913.67"/>
<polygon fill="grey" stroke="grey" stroke-width="2" points="517.16,-913.93 513.66,-903.93 510.16,-913.93 517.16,-913.93"/>
</g>
<!-- 9&#45;&gt;8 -->
<g id="edge22" class="edge">
<title>9&#45;&gt;8</title>
<path fill="none" stroke="grey" stroke-width="2" d="M504.69,-1007.34C505.82,-1000.75 507.14,-993.08 508.41,-985.67"/>
<polygon fill="grey" stroke="grey" stroke-width="2" points="511.84,-986.33 510.08,-975.89 504.94,-985.15 511.84,-986.33"/>
</g>
<!-- 10&#45;&gt;6 -->
<g id="edge19" class="edge">
<title>10&#45;&gt;6</title>
<path fill="none" stroke="grey" stroke-width="2" d="M487.15,-863.15C474.93,-854.93 460.21,-845.02 446.89,-836.06"/>
<polygon fill="grey" stroke="grey" stroke-width="2" points="448.89,-833.18 438.64,-830.5 444.98,-838.99 448.89,-833.18"/>
</g>
<!-- 31 -->
<g id="node32" class="node">
<title>31</title>
<path fill="none" stroke="#a7d856" stroke-width="2" d="M545.04,-756C545.04,-756 450.29,-756 450.29,-756 444.29,-756 438.29,-750 438.29,-744 438.29,-744 438.29,-732 438.29,-732 438.29,-726 444.29,-720 450.29,-720 450.29,-720 545.04,-720 545.04,-720 551.04,-720 557.04,-726 557.04,-732 557.04,-732 557.04,-744 557.04,-744 557.04,-750 551.04,-756 545.04,-756"/>
<text xml:space="preserve" text-anchor="middle" x="497.66" y="-734.12" font-family="sans" font-size="10.00">preprocessing_plot_pca</text>
</g>
<!-- 10&#45;&gt;31 -->
<g id="edge55" class="edge">
<title>10&#45;&gt;31</title>
<path fill="none" stroke="grey" stroke-width="2" d="M511.64,-863.02C508.99,-839.54 504.32,-798.11 501.12,-769.64"/>
<polygon fill="grey" stroke="grey" stroke-width="2" points="504.61,-769.39 500.01,-759.85 497.65,-770.18 504.61,-769.39"/>
</g>
<!-- 33 -->
<g id="node34" class="node">
<title>33</title>
<path fill="none" stroke="#d88556" stroke-width="2" d="M668.66,-756C668.66,-756 586.66,-756 586.66,-756 580.66,-756 574.66,-750 574.66,-744 574.66,-744 574.66,-732 574.66,-732 574.66,-726 580.66,-720 586.66,-720 586.66,-720 668.66,-720 668.66,-720 674.66,-720 680.66,-726 680.66,-732 680.66,-732 680.66,-744 680.66,-744 680.66,-750 674.66,-756 668.66,-756"/>
<text xml:space="preserve" text-anchor="middle" x="627.66" y="-734.12" font-family="sans" font-size="10.00">preprocessing_umap</text>
</g>
<!-- 10&#45;&gt;33 -->
<g id="edge58" class="edge">
<title>10&#45;&gt;33</title>
<path fill="none" stroke="grey" stroke-width="2" d="M519.39,-863.19C526.14,-844.13 538.75,-813.71 556.66,-792 565.18,-781.68 576.11,-772.25 586.82,-764.3"/>
<polygon fill="grey" stroke="grey" stroke-width="2" points="588.74,-767.23 594.9,-758.61 584.71,-761.51 588.74,-767.23"/>
</g>
<!-- 34 -->
<g id="node35" class="node">
<title>34</title>
<path fill="none" stroke="#56d8c9" stroke-width="2" d="M677.66,-828C677.66,-828 577.66,-828 577.66,-828 571.66,-828 565.66,-822 565.66,-816 565.66,-816 565.66,-804 565.66,-804 565.66,-798 571.66,-792 577.66,-792 577.66,-792 677.66,-792 677.66,-792 683.66,-792 689.66,-798 689.66,-804 689.66,-804 689.66,-816 689.66,-816 689.66,-822 683.66,-828 677.66,-828"/>
<text xml:space="preserve" text-anchor="middle" x="627.66" y="-806.12" font-family="sans" font-size="10.00">preprocessing_neighbors</text>
</g>
<!-- 10&#45;&gt;34 -->
<g id="edge59" class="edge">
<title>10&#45;&gt;34</title>
<path fill="none" stroke="grey" stroke-width="2" d="M542.73,-863.15C556.39,-854.76 572.91,-844.62 587.73,-835.52"/>
<polygon fill="grey" stroke="grey" stroke-width="2" points="589.38,-838.61 596.07,-830.4 585.72,-832.65 589.38,-838.61"/>
</g>
<!-- 11&#45;&gt;0 -->
<g id="edge5" class="edge">
<title>11&#45;&gt;0</title>
<path fill="none" stroke="grey" stroke-width="2" d="M493.22,-301.73C357.32,-287.98 -115.86,-228.11 26.66,-72 62.57,-32.67 431.59,-22.19 562.17,-19.7"/>
<polygon fill="grey" stroke="grey" stroke-width="2" points="562.16,-23.2 572.09,-19.52 562.03,-16.21 562.16,-23.2"/>
</g>
<!-- 11&#45;&gt;15 -->
<g id="edge33" class="edge">
<title>11&#45;&gt;15</title>
<path fill="none" stroke="grey" stroke-width="2" d="M556.96,-287.15C570.27,-278.76 586.35,-268.62 600.78,-259.52"/>
<polygon fill="grey" stroke="grey" stroke-width="2" points="602.27,-262.72 608.86,-254.43 598.53,-256.8 602.27,-262.72"/>
</g>
<!-- 12&#45;&gt;0 -->
<g id="edge7" class="edge">
<title>12&#45;&gt;0</title>
<path fill="none" stroke="grey" stroke-width="2" d="M873.42,-287.01C911.49,-266.94 967.3,-230.53 991.66,-180 1012.79,-136.17 1009.77,-104.63 973.66,-72 927.38,-30.18 740.49,-21.31 653.11,-19.46"/>
<polygon fill="grey" stroke="grey" stroke-width="2" points="653.32,-15.97 643.25,-19.28 653.19,-22.97 653.32,-15.97"/>
</g>
<!-- 12&#45;&gt;15 -->
<g id="edge31" class="edge">
<title>12&#45;&gt;15</title>
<path fill="none" stroke="grey" stroke-width="2" d="M784.7,-287.06C754.39,-276.18 715.96,-262.39 686.27,-251.73"/>
<polygon fill="grey" stroke="grey" stroke-width="2" points="687.58,-248.48 676.99,-248.4 685.21,-255.07 687.58,-248.48"/>
</g>
<!-- 13&#45;&gt;0 -->
<g id="edge12" class="edge">
<title>13&#45;&gt;0</title>
<path fill="none" stroke="grey" stroke-width="2" d="M580.48,-289.81C435.43,-252 71.6,-153.46 38.66,-108 29.28,-95.04 27.89,-83.83 38.66,-72 73.76,-33.49 434.38,-22.49 562.67,-19.79"/>
<polygon fill="grey" stroke="grey" stroke-width="2" points="562.44,-23.29 572.36,-19.59 562.3,-16.29 562.44,-23.29"/>
</g>
<!-- 13&#45;&gt;15 -->
<g id="edge32" class="edge">
<title>13&#45;&gt;15</title>
<path fill="none" stroke="grey" stroke-width="2" d="M639.66,-287.34C639.66,-280.75 639.66,-273.08 639.66,-265.67"/>
<polygon fill="grey" stroke="grey" stroke-width="2" points="643.16,-265.93 639.66,-255.93 636.16,-265.93 643.16,-265.93"/>
</g>
<!-- 14&#45;&gt;13 -->
<g id="edge28" class="edge">
<title>14&#45;&gt;13</title>
<path fill="none" stroke="grey" stroke-width="2" d="M671.81,-359.34C667.42,-352.18 662.22,-343.73 657.31,-335.73"/>
<polygon fill="grey" stroke="grey" stroke-width="2" points="660.46,-334.17 652.24,-327.48 654.5,-337.83 660.46,-334.17"/>
</g>
<!-- 15&#45;&gt;0 -->
<g id="edge13" class="edge">
<title>15&#45;&gt;0</title>
<path fill="none" stroke="grey" stroke-width="2" d="M605.45,-217.31C590.68,-208.59 574.91,-196.19 566.66,-180 559.4,-165.75 557.67,-157.23 566.66,-144 591.12,-108.03 633.21,-143.97 657.66,-108 671.32,-87.91 656.01,-63.81 638.84,-45.76"/>
<polygon fill="grey" stroke="grey" stroke-width="2" points="641.59,-43.55 632,-39.04 636.68,-48.55 641.59,-43.55"/>
</g>
<!-- 17 -->
<g id="node18" class="node">
<title>17</title>
<path fill="none" stroke="#56d89a" stroke-width="2" d="M970.29,-180C970.29,-180 877.04,-180 877.04,-180 871.04,-180 865.04,-174 865.04,-168 865.04,-168 865.04,-156 865.04,-156 865.04,-150 871.04,-144 877.04,-144 877.04,-144 970.29,-144 970.29,-144 976.29,-144 982.29,-150 982.29,-156 982.29,-156 982.29,-168 982.29,-168 982.29,-174 976.29,-180 970.29,-180"/>
<text xml:space="preserve" text-anchor="middle" x="923.66" y="-158.12" font-family="sans" font-size="10.00">metrics_merge_per_file</text>
</g>
<!-- 15&#45;&gt;17 -->
<g id="edge36" class="edge">
<title>15&#45;&gt;17</title>
<path fill="none" stroke="grey" stroke-width="2" d="M674.09,-224.6C714.31,-214.78 783.2,-197.92 851.95,-180.91"/>
<polygon fill="grey" stroke="grey" stroke-width="2" points="852.52,-184.38 861.39,-178.58 850.84,-177.58 852.52,-184.38"/>
</g>
<!-- 18 -->
<g id="node19" class="node">
<title>18</title>
<path fill="none" stroke="#68d856" stroke-width="2" d="M402.04,-180C402.04,-180 289.29,-180 289.29,-180 283.29,-180 277.29,-174 277.29,-168 277.29,-168 277.29,-156 277.29,-156 277.29,-150 283.29,-144 289.29,-144 289.29,-144 402.04,-144 402.04,-144 408.04,-144 414.04,-150 414.04,-156 414.04,-156 414.04,-168 414.04,-168 414.04,-174 408.04,-180 402.04,-180"/>
<text xml:space="preserve" text-anchor="middle" x="345.66" y="-158.12" font-family="sans" font-size="10.00">metrics_merge_per_dataset</text>
</g>
<!-- 15&#45;&gt;18 -->
<g id="edge37" class="edge">
<title>15&#45;&gt;18</title>
<path fill="none" stroke="grey" stroke-width="2" d="M605.36,-224.83C562.04,-214.52 486.08,-196.43 427.46,-182.48"/>
<polygon fill="grey" stroke="grey" stroke-width="2" points="428.34,-179.09 417.8,-180.18 426.72,-185.9 428.34,-179.09"/>
</g>
<!-- 19 -->
<g id="node20" class="node">
<title>19</title>
<path fill="none" stroke="#61d856" stroke-width="2" d="M691.91,-180C691.91,-180 587.41,-180 587.41,-180 581.41,-180 575.41,-174 575.41,-168 575.41,-168 575.41,-156 575.41,-156 575.41,-150 581.41,-144 587.41,-144 587.41,-144 691.91,-144 691.91,-144 697.91,-144 703.91,-150 703.91,-156 703.91,-156 703.91,-168 703.91,-168 703.91,-174 697.91,-180 691.91,-180"/>
<text xml:space="preserve" text-anchor="middle" x="639.66" y="-158.12" font-family="sans" font-size="10.00">metrics_merge_per_batch</text>
</g>
<!-- 15&#45;&gt;19 -->
<g id="edge38" class="edge">
<title>15&#45;&gt;19</title>
<path fill="none" stroke="grey" stroke-width="2" d="M639.66,-215.34C639.66,-208.75 639.66,-201.08 639.66,-193.67"/>
<polygon fill="grey" stroke="grey" stroke-width="2" points="643.16,-193.93 639.66,-183.93 636.16,-193.93 643.16,-193.93"/>
</g>
<!-- 20 -->
<g id="node21" class="node">
<title>20</title>
<path fill="none" stroke="#56d873" stroke-width="2" d="M835.04,-180C835.04,-180 734.29,-180 734.29,-180 728.29,-180 722.29,-174 722.29,-168 722.29,-168 722.29,-156 722.29,-156 722.29,-150 728.29,-144 734.29,-144 734.29,-144 835.04,-144 835.04,-144 841.04,-144 847.04,-150 847.04,-156 847.04,-156 847.04,-168 847.04,-168 847.04,-174 841.04,-180 835.04,-180"/>
<text xml:space="preserve" text-anchor="middle" x="784.66" y="-158.12" font-family="sans" font-size="10.00">metrics_merge_per_label</text>
</g>
<!-- 15&#45;&gt;20 -->
<g id="edge39" class="edge">
<title>15&#45;&gt;20</title>
<path fill="none" stroke="grey" stroke-width="2" d="M674.03,-216.41C692.51,-207.49 715.61,-196.33 735.92,-186.53"/>
<polygon fill="grey" stroke="grey" stroke-width="2" points="737.29,-189.76 744.77,-182.26 734.25,-183.45 737.29,-189.76"/>
</g>
<!-- 22 -->
<g id="node23" class="node">
<title>22</title>
<path fill="none" stroke="#56d8a2" stroke-width="2" d="M507.91,-180C507.91,-180 451.41,-180 451.41,-180 445.41,-180 439.41,-174 439.41,-168 439.41,-168 439.41,-156 439.41,-156 439.41,-150 445.41,-144 451.41,-144 451.41,-144 507.91,-144 507.91,-144 513.91,-144 519.91,-150 519.91,-156 519.91,-156 519.91,-168 519.91,-168 519.91,-174 513.91,-180 507.91,-180"/>
<text xml:space="preserve" text-anchor="middle" x="479.66" y="-158.12" font-family="sans" font-size="10.00">metrics_merge</text>
</g>
<!-- 15&#45;&gt;22 -->
<g id="edge41" class="edge">
<title>15&#45;&gt;22</title>
<path fill="none" stroke="grey" stroke-width="2" d="M605.34,-217.98C584.13,-208.7 556.48,-196.61 532.52,-186.12"/>
<polygon fill="grey" stroke="grey" stroke-width="2" points="534.07,-182.98 523.51,-182.18 531.27,-189.4 534.07,-182.98"/>
</g>
<!-- 16&#45;&gt;0 -->
<g id="edge9" class="edge">
<title>16&#45;&gt;0</title>
<path fill="none" stroke="grey" stroke-width="2" d="M881.7,-79.7C822.26,-66.54 714,-42.56 652.86,-29.01"/>
<polygon fill="grey" stroke="grey" stroke-width="2" points="653.67,-25.61 643.15,-26.86 652.16,-32.44 653.67,-25.61"/>
</g>
<!-- 17&#45;&gt;16 -->
<g id="edge34" class="edge">
<title>17&#45;&gt;16</title>
<path fill="none" stroke="grey" stroke-width="2" d="M923.66,-143.34C923.66,-136.75 923.66,-129.08 923.66,-121.67"/>
<polygon fill="grey" stroke="grey" stroke-width="2" points="927.16,-121.93 923.66,-111.93 920.16,-121.93 927.16,-121.93"/>
</g>
<!-- 18&#45;&gt;0 -->
<g id="edge1" class="edge">
<title>18&#45;&gt;0</title>
<path fill="none" stroke="grey" stroke-width="2" d="M359.28,-143.2C377.26,-120.12 408.4,-81.69 423.66,-72 466.31,-44.92 523.15,-31.31 562.32,-24.73"/>
<polygon fill="grey" stroke="grey" stroke-width="2" points="562.8,-28.19 572.14,-23.19 561.72,-21.28 562.8,-28.19"/>
</g>
<!-- 23 -->
<g id="node24" class="node">
<title>23</title>
<path fill="none" stroke="#9fd856" stroke-width="2" d="M207.29,-108C207.29,-108 60.04,-108 60.04,-108 54.04,-108 48.04,-102 48.04,-96 48.04,-96 48.04,-84 48.04,-84 48.04,-78 54.04,-72 60.04,-72 60.04,-72 207.29,-72 207.29,-72 213.29,-72 219.29,-78 219.29,-84 219.29,-84 219.29,-96 219.29,-96 219.29,-102 213.29,-108 207.29,-108"/>
<text xml:space="preserve" text-anchor="middle" x="133.66" y="-86.12" font-family="sans" font-size="10.00">metrics_funkyheatmap_per_dataset</text>
</g>
<!-- 18&#45;&gt;23 -->
<g id="edge42" class="edge">
<title>18&#45;&gt;23</title>
<path fill="none" stroke="grey" stroke-width="2" d="M291.34,-143.06C263.54,-133.88 229.46,-122.63 200.1,-112.94"/>
<polygon fill="grey" stroke="grey" stroke-width="2" points="201.31,-109.65 190.72,-109.84 199.11,-116.3 201.31,-109.65"/>
</g>
<!-- 25 -->
<g id="node26" class="node">
<title>25</title>
<path fill="none" stroke="#8fd856" stroke-width="2" d="M364.16,-108C364.16,-108 249.16,-108 249.16,-108 243.16,-108 237.16,-102 237.16,-96 237.16,-96 237.16,-84 237.16,-84 237.16,-78 243.16,-72 249.16,-72 249.16,-72 364.16,-72 364.16,-72 370.16,-72 376.16,-78 376.16,-84 376.16,-84 376.16,-96 376.16,-96 376.16,-102 370.16,-108 364.16,-108"/>
<text xml:space="preserve" text-anchor="middle" x="306.66" y="-86.12" font-family="sans" font-size="10.00">metrics_barplot_per_dataset</text>
</g>
<!-- 18&#45;&gt;25 -->
<g id="edge44" class="edge">
<title>18&#45;&gt;25</title>
<path fill="none" stroke="grey" stroke-width="2" d="M335.82,-143.34C331.93,-136.34 327.34,-128.12 322.98,-120.28"/>
<polygon fill="grey" stroke="grey" stroke-width="2" points="326.03,-118.58 318.11,-111.55 319.92,-121.99 326.03,-118.58"/>
</g>
<!-- 19&#45;&gt;0 -->
<g id="edge6" class="edge">
<title>19&#45;&gt;0</title>
<path fill="none" stroke="grey" stroke-width="2" d="M663.77,-143.11C674.14,-133.91 685.13,-121.74 690.66,-108 696.64,-93.16 698.35,-86.03 690.66,-72 682.09,-56.35 666.7,-44.65 651.49,-36.28"/>
<polygon fill="grey" stroke="grey" stroke-width="2" points="653.22,-33.23 642.71,-31.88 650.08,-39.49 653.22,-33.23"/>
</g>
<!-- 20&#45;&gt;0 -->
<g id="edge8" class="edge">
<title>20&#45;&gt;0</title>
<path fill="none" stroke="grey" stroke-width="2" d="M772.39,-143.22C758.4,-123.9 734.04,-93 707.66,-72 690.77,-58.55 669.94,-46.87 651.68,-37.93"/>
<polygon fill="grey" stroke="grey" stroke-width="2" points="653.39,-34.87 642.85,-33.76 650.4,-41.2 653.39,-34.87"/>
</g>
<!-- 21 -->
<g id="node22" class="node">
<title>21</title>
<path fill="none" stroke="#565bd8" stroke-width="2" d="M536.16,-108C536.16,-108 445.16,-108 445.16,-108 439.16,-108 433.16,-102 433.16,-96 433.16,-96 433.16,-84 433.16,-84 433.16,-78 439.16,-72 445.16,-72 445.16,-72 536.16,-72 536.16,-72 542.16,-72 548.16,-78 548.16,-84 548.16,-84 548.16,-96 548.16,-96 548.16,-102 542.16,-108 536.16,-108"/>
<text xml:space="preserve" text-anchor="middle" x="490.66" y="-86.12" font-family="sans" font-size="10.00">metrics_funkyheatmap</text>
</g>
<!-- 21&#45;&gt;0 -->
<g id="edge10" class="edge">
<title>21&#45;&gt;0</title>
<path fill="none" stroke="grey" stroke-width="2" d="M520.49,-71.15C534.65,-62.68 551.8,-52.42 567.12,-43.25"/>
<polygon fill="grey" stroke="grey" stroke-width="2" points="568.51,-46.5 575.29,-38.37 564.91,-40.5 568.51,-46.5"/>
</g>
<!-- 22&#45;&gt;21 -->
<g id="edge40" class="edge">
<title>22&#45;&gt;21</title>
<path fill="none" stroke="grey" stroke-width="2" d="M482.44,-143.34C483.47,-136.75 484.68,-129.08 485.84,-121.67"/>
<polygon fill="grey" stroke="grey" stroke-width="2" points="489.29,-122.31 487.38,-111.89 482.37,-121.23 489.29,-122.31"/>
</g>
<!-- 24 -->
<g id="node25" class="node">
<title>24</title>
<path fill="none" stroke="#56d863" stroke-width="2" d="M637.04,-108C637.04,-108 578.29,-108 578.29,-108 572.29,-108 566.29,-102 566.29,-96 566.29,-96 566.29,-84 566.29,-84 566.29,-78 572.29,-72 578.29,-72 578.29,-72 637.04,-72 637.04,-72 643.04,-72 649.04,-78 649.04,-84 649.04,-84 649.04,-96 649.04,-96 649.04,-102 643.04,-108 637.04,-108"/>
<text xml:space="preserve" text-anchor="middle" x="607.66" y="-86.12" font-family="sans" font-size="10.00">metrics_barplot</text>
</g>
<!-- 22&#45;&gt;24 -->
<g id="edge43" class="edge">
<title>22&#45;&gt;24</title>
<path fill="none" stroke="grey" stroke-width="2" d="M512.29,-143.15C527.94,-134.6 546.91,-124.22 563.8,-114.99"/>
<polygon fill="grey" stroke="grey" stroke-width="2" points="565.34,-118.13 572.44,-110.26 561.98,-111.99 565.34,-118.13"/>
</g>
<!-- 23&#45;&gt;0 -->
<g id="edge11" class="edge">
<title>23&#45;&gt;0</title>
<path fill="none" stroke="grey" stroke-width="2" d="M220.2,-73.21C222.72,-72.8 225.21,-72.39 227.66,-72 348.16,-52.71 490.79,-33.89 562.18,-24.74"/>
<polygon fill="grey" stroke="grey" stroke-width="2" points="562.59,-28.22 572.06,-23.48 561.7,-21.27 562.59,-28.22"/>
</g>
<!-- 24&#45;&gt;0 -->
<g id="edge2" class="edge">
<title>24&#45;&gt;0</title>
<path fill="none" stroke="grey" stroke-width="2" d="M607.66,-71.34C607.66,-64.75 607.66,-57.08 607.66,-49.67"/>
<polygon fill="grey" stroke="grey" stroke-width="2" points="611.16,-49.93 607.66,-39.93 604.16,-49.93 611.16,-49.93"/>
</g>
<!-- 25&#45;&gt;0 -->
<g id="edge4" class="edge">
<title>25&#45;&gt;0</title>
<path fill="none" stroke="grey" stroke-width="2" d="M376.85,-72.68C434.26,-59.33 513.72,-40.85 562.84,-29.42"/>
<polygon fill="grey" stroke="grey" stroke-width="2" points="563.35,-32.9 572.3,-27.22 561.77,-26.08 563.35,-32.9"/>
</g>
<!-- 27 -->
<g id="node28" class="node">
<title>27</title>
<path fill="none" stroke="#569ad8" stroke-width="2" d="M367.54,-540C367.54,-540 239.79,-540 239.79,-540 233.79,-540 227.79,-534 227.79,-528 227.79,-528 227.79,-516 227.79,-516 227.79,-510 233.79,-504 239.79,-504 239.79,-504 367.54,-504 367.54,-504 373.54,-504 379.54,-510 379.54,-516 379.54,-516 379.54,-528 379.54,-528 379.54,-534 373.54,-540 367.54,-540"/>
<text xml:space="preserve" text-anchor="middle" x="303.66" y="-518.12" font-family="sans" font-size="10.00">integration_barplot_per_dataset</text>
</g>
<!-- 27&#45;&gt;26 -->
<g id="edge47" class="edge">
<title>27&#45;&gt;26</title>
<path fill="none" stroke="grey" stroke-width="2" d="M312.4,-503.02C323.96,-479.22 344.49,-436.97 358.34,-408.48"/>
<polygon fill="grey" stroke="grey" stroke-width="2" points="361.45,-410.09 362.67,-399.56 355.15,-407.03 361.45,-410.09"/>
</g>
<!-- 28&#45;&gt;27 -->
<g id="edge49" class="edge">
<title>28&#45;&gt;27</title>
<path fill="none" stroke="grey" stroke-width="2" d="M307.4,-575.34C306.93,-568.75 306.38,-561.08 305.85,-553.67"/>
<polygon fill="grey" stroke="grey" stroke-width="2" points="309.36,-553.65 305.16,-543.92 302.38,-554.15 309.36,-553.65"/>
</g>
<!-- 29&#45;&gt;26 -->
<g id="edge45" class="edge">
<title>29&#45;&gt;26</title>
<path fill="none" stroke="grey" stroke-width="2" d="M461.33,-431.15C446.92,-422.68 429.48,-412.42 413.9,-403.25"/>
<polygon fill="grey" stroke="grey" stroke-width="2" points="415.95,-400.4 405.55,-398.35 412.4,-406.43 415.95,-400.4"/>
</g>
<!-- 31&#45;&gt;30 -->
<g id="edge52" class="edge">
<title>31&#45;&gt;30</title>
<path fill="none" stroke="grey" stroke-width="2" d="M503.53,-719.19C510.22,-700.4 522.4,-670.46 538.66,-648 545.57,-638.46 554.39,-629.27 563.01,-621.3"/>
<polygon fill="grey" stroke="grey" stroke-width="2" points="565.11,-624.11 570.28,-614.87 560.47,-618.87 565.11,-624.11"/>
</g>
<!-- 32 -->
<g id="node33" class="node">
<title>32</title>
<path fill="none" stroke="#bed856" stroke-width="2" d="M663.16,-684C663.16,-684 560.16,-684 560.16,-684 554.16,-684 548.16,-678 548.16,-672 548.16,-672 548.16,-660 548.16,-660 548.16,-654 554.16,-648 560.16,-648 560.16,-648 663.16,-648 663.16,-648 669.16,-648 675.16,-654 675.16,-660 675.16,-660 675.16,-672 675.16,-672 675.16,-678 669.16,-684 663.16,-684"/>
<text xml:space="preserve" text-anchor="middle" x="611.66" y="-662.12" font-family="sans" font-size="10.00">preprocessing_plot_umap</text>
</g>
<!-- 32&#45;&gt;30 -->
<g id="edge54" class="edge">
<title>32&#45;&gt;30</title>
<path fill="none" stroke="grey" stroke-width="2" d="M607.63,-647.34C606.1,-640.67 604.32,-632.89 602.61,-625.39"/>
<polygon fill="grey" stroke="grey" stroke-width="2" points="606.07,-624.82 600.43,-615.85 599.25,-626.38 606.07,-624.82"/>
</g>
<!-- 33&#45;&gt;32 -->
<g id="edge56" class="edge">
<title>33&#45;&gt;32</title>
<path fill="none" stroke="grey" stroke-width="2" d="M623.63,-719.34C622.1,-712.67 620.32,-704.89 618.61,-697.39"/>
<polygon fill="grey" stroke="grey" stroke-width="2" points="622.07,-696.82 616.43,-687.85 615.25,-698.38 622.07,-696.82"/>
</g>
<!-- 34&#45;&gt;33 -->
<g id="edge57" class="edge">
<title>34&#45;&gt;33</title>
<path fill="none" stroke="grey" stroke-width="2" d="M627.66,-791.34C627.66,-784.75 627.66,-777.08 627.66,-769.67"/>
<polygon fill="grey" stroke="grey" stroke-width="2" points="631.16,-769.93 627.66,-759.93 624.16,-769.93 631.16,-769.93"/>
</g>
</g>
</svg>
